<svg xmlns="http://www.w3.org/2000/svg" xmlns:xlink="http://www.w3.org/1999/xlink" viewBox="0 0 41.32 83.42"><defs><style>.cls-1{fill:url(#Dégradé_sans_nom_99);}.cls-2{fill:url(#Dégradé_sans_nom_95);}.cls-3{fill:url(#Dégradé_sans_nom_97);}</style><linearGradient id="Dégradé_sans_nom_99" x1="10.15" y1="36.42" x2="32.96" y2="36.42" gradientUnits="userSpaceOnUse"><stop offset="0.08" stop-color="#1d1d1b"/><stop offset="0.16" stop-color="#232321"/><stop offset="0.25" stop-color="#333331"/><stop offset="0.35" stop-color="#4d4d4b"/><stop offset="0.47" stop-color="#727270"/><stop offset="0.59" stop-color="#a1a1a0"/><stop offset="0.71" stop-color="#d9d9d9"/><stop offset="0.78" stop-color="#fff"/></linearGradient><linearGradient id="Dégradé_sans_nom_95" x1="6.61" y1="65.75" x2="41.32" y2="65.75" gradientUnits="userSpaceOnUse"><stop offset="0" stop-color="#fff"/><stop offset="0.12" stop-color="#bdbdbc"/><stop offset="0.25" stop-color="#797978"/><stop offset="0.35" stop-color="#474745"/><stop offset="0.44" stop-color="#282827"/><stop offset="0.48" stop-color="#1d1d1b"/><stop offset="0.53" stop-color="#292927"/><stop offset="0.62" stop-color="#494948"/><stop offset="0.74" stop-color="#7e7e7d"/><stop offset="0.89" stop-color="#c5c5c5"/><stop offset="1" stop-color="#fff"/></linearGradient><linearGradient id="Dégradé_sans_nom_97" y1="45.52" x2="23.67" y2="45.52" gradientUnits="userSpaceOnUse"><stop offset="0" stop-color="#fff"/><stop offset="0.03" stop-color="#f5f5f4"/><stop offset="0.09" stop-color="#d9d9d8"/><stop offset="0.17" stop-color="#ababaa"/><stop offset="0.26" stop-color="#6c6c6b"/><stop offset="0.36" stop-color="#1d1d1b"/><stop offset="0.51" stop-color="#1f1f1d"/><stop offset="0.56" stop-color="#272725"/><stop offset="0.6" stop-color="#343432" stop-opacity="0.99"/><stop offset="0.63" stop-color="#474745" stop-opacity="0.98"/><stop offset="0.65" stop-color="#5f5f5e" stop-opacity="0.97"/><stop offset="0.68" stop-color="#7e7e7d" stop-opacity="0.96"/><stop offset="0.7" stop-color="#a2a2a1" stop-opacity="0.94"/><stop offset="0.72" stop-color="#cbcbcb" stop-opacity="0.92"/><stop offset="0.73" stop-color="#f9f9f9" stop-opacity="0.9"/><stop offset="0.74" stop-color="#fff" stop-opacity="0.9"/></linearGradient></defs><title>Fichier 1</title><g id="Calque_2" data-name="Calque 2"><g id="Calque_1-2" data-name="Calque 1"><path class="cls-1" d="M24.19,56.54a6.42,6.42,0,0,0,1.49,4,4.08,4.08,0,0,0,3.16,1.93,5.42,5.42,0,0,0,3.77-1.67l.35.53c0,.41-1.2,1.53-3.6,3.34s-5.56,4.53-9.47,8.15l-.44-.35c0-.48.36-1,1.09-1.62A2.48,2.48,0,0,0,21.64,69l-1.05-1.4c-2.05-2.23-3.07-4.39-3.07-6.5V36.5A3.33,3.33,0,0,0,15.81,34a5.43,5.43,0,0,0-2.42-1.23,8.34,8.34,0,0,0-2.89,1.58l-.35-.79q9.34-7.23,12.2-10.71l.52-.52c.47,0,.7.17.7.52s-1.08,1.85-3.24,4.3c0,.65.76,1.52,2.3,2.61a20,20,0,0,0,5.15,2.62c-2.4,1-3.59,2.24-3.59,3.58ZM18.79,0A4.67,4.67,0,0,1,22,1.36a4.16,4.16,0,0,1,1.47,3.12,4.36,4.36,0,0,1-1.3,3.11,4.07,4.07,0,0,1-3,1.36A4.48,4.48,0,0,1,16,7.59a4.17,4.17,0,0,1-1.44-3.11,4.4,4.4,0,0,1,1.31-3.12A4,4,0,0,1,18.79,0Z"/><path class="cls-2" d="M27.39,53q-6,2.54-7,6.84-1.32,5.55,2.73,6.51c1,.23,2.67-.22,5.15-1.35A10.34,10.34,0,0,1,35,64a7.28,7.28,0,0,1,4.29,2.57,4.92,4.92,0,0,1,.83,4.3,7.55,7.55,0,0,1-3.41,4.25q-2.86,2-9.38,3.72T19,81.35a11.18,11.18,0,0,0-3.3,2.07c-.22,0-.29-.21-.23-.47a1.4,1.4,0,0,1,.61-.71,1.56,1.56,0,0,0,.67-.91c.05-.22-.21-.73-.77-1.56a4.22,4.22,0,0,0-2.62-1.65c-2.19-.52-4.18.19-6,2.15l-.42.31a.36.36,0,0,1-.3-.49q.25-1.05,4-3.39a9.85,9.85,0,0,1,7.82-1.36,8.24,8.24,0,0,1,4.89,3.23l.44.45,1-.3q4.89-1.22,6.57-2.79a7.24,7.24,0,0,0,2.18-3.64A5,5,0,0,0,33,68.4a4.88,4.88,0,0,0-3.18-2.15q-1.56-.37-5.31,1.31a10.11,10.11,0,0,1-6.42,1,4.79,4.79,0,0,1-3.19-2.51,5.84,5.84,0,0,1-.57-4.3A10.24,10.24,0,0,1,18.77,56q3.63-2.58,11.94-4.69a14.1,14.1,0,0,0,6-3l.26-.22.13.58c-.07.31-.58.75-1.51,1.32s-1.45,1-1.52,1.32c1.15,1.56,2.19,2.45,3.11,2.67a6.62,6.62,0,0,0,3.92-.44l.17.45c-.06.22-1.31,1-3.77,2.34s-4.26,1.87-5.39,1.6S29.52,56,27.39,53Z"/><path class="cls-3" d="M11.37,38.54c-.45-.63-1.28-1.65-2.51-3.08a20.1,20.1,0,0,1-2.81-4.11,12.3,12.3,0,0,1-1-5.32,10.07,10.07,0,0,1,1.88-6c1.25-1.77,2.1-2.65,2.54-2.65.26,0,.4.16.4.47a1.29,1.29,0,0,1-.47.8,5.81,5.81,0,0,0-1.54,4.41,7.15,7.15,0,0,0,1,3.4q1,1.8,6.15,6.61t6.92,8.74a19.23,19.23,0,0,1,1.74,7.81q0,11.14-11.19,18.28A10.3,10.3,0,0,0,8,73l-.4.61c-.4,0-.6-.13-.6-.4a11,11,0,0,1,1-2.41l-.74-.53Q0,65.43,0,56.32A18.15,18.15,0,0,1,3.14,46.06,23.26,23.26,0,0,1,11.37,38.54Zm.4.46Q5.16,43.07,5.15,53.84c0,3.68.79,6.56,2.37,8.62s3.38,3.09,5.39,3.09q2.07,0,3.44-3.16a18.78,18.78,0,0,0,1.37-7.48,27.72,27.72,0,0,0-.89-6.82A17.12,17.12,0,0,0,14,42C12.68,40.27,12,39.27,11.77,39Z"/></g></g></svg>